# xmcd
# 
# Track frame offsets:
#     150
#     4050
#     25950
#     30675
#     45750
#     72525
#     88800
# 
# Disc length: 1454
# 
# Revision: 0
# Processed by: cddbd v1.5.2PL0 Copyright (c) Steve Scherf et al.
# Submitted via: fre:ac v1.0.17
# 
DISCID=5005ac07
DTITLE=Various Artist - Diachronism - Paradoxidental
DYEAR=0
DGENRE=
TTITLE0=Ibrahim Maalouf - Intro (old radio of a lebanese mountain)
TTITLE1=Ibrahim Maalouf - Esse Emme
TTITLE2=Ibrahim Maalouf - Intro (Winners of 2007-2009 Tour)
TTITLE3=Ibrahim Maalouf and Matthieu Chedid - Bizarre (feat. M)
TTITLE4=Ibrahim Maalouf - Make Ce (Feat. Lollibob)
TTITLE5=Ibrahim Maalouf and Jacky Terrasson - Trumpet - Piano Improvisation (feat. Jacky Terrasson)
TTITLE6=Ibrahim Maalouf and Jacky Terrasson - Souma Hia (feat. Jacky Terrasson)
EXTD=
EXTT0=
EXTT1=
EXTT2=
EXTT3=
EXTT4=
EXTT5=
EXTT6=
PLAYORDER=
